<mxfile host="Electron" agent="Mozilla/5.0 (Windows NT 10.0; Win64; x64) AppleWebKit/537.36 (KHTML, like Gecko) draw.io/26.2.2 Chrome/134.0.6998.178 Electron/35.1.2 Safari/537.36" version="26.2.2">
  <diagram name="Página-1" id="C_HvyDs8PUhXiZ7HognA">
    <mxGraphModel dx="868" dy="529" grid="1" gridSize="10" guides="1" tooltips="1" connect="1" arrows="1" fold="1" page="1" pageScale="1" pageWidth="827" pageHeight="1169" math="0" shadow="0">
      <root>
        <mxCell id="0" />
        <mxCell id="1" parent="0" />
        <mxCell id="lW9xZ8FQmXiLJlBXLkCm-2" style="edgeStyle=orthogonalEdgeStyle;rounded=0;orthogonalLoop=1;jettySize=auto;html=1;" parent="1" source="lW9xZ8FQmXiLJlBXLkCm-1" edge="1">
          <mxGeometry relative="1" as="geometry">
            <mxPoint x="414" y="120" as="targetPoint" />
          </mxGeometry>
        </mxCell>
        <mxCell id="lW9xZ8FQmXiLJlBXLkCm-1" value="&lt;font size=&quot;3&quot;&gt;início&lt;/font&gt;" style="strokeWidth=2;html=1;shape=mxgraph.flowchart.terminator;whiteSpace=wrap;" parent="1" vertex="1">
          <mxGeometry x="342" y="20" width="144" height="60" as="geometry" />
        </mxCell>
        <mxCell id="lW9xZ8FQmXiLJlBXLkCm-4" style="edgeStyle=orthogonalEdgeStyle;rounded=0;orthogonalLoop=1;jettySize=auto;html=1;" parent="1" source="lW9xZ8FQmXiLJlBXLkCm-3" target="lW9xZ8FQmXiLJlBXLkCm-5" edge="1">
          <mxGeometry relative="1" as="geometry">
            <mxPoint x="414" y="230" as="targetPoint" />
          </mxGeometry>
        </mxCell>
        <mxCell id="lW9xZ8FQmXiLJlBXLkCm-3" value="A, B, X" style="html=1;strokeWidth=2;shape=manualInput;whiteSpace=wrap;rounded=1;size=26;arcSize=11;" parent="1" vertex="1">
          <mxGeometry x="364" y="130" width="100" height="60" as="geometry" />
        </mxCell>
        <mxCell id="lW9xZ8FQmXiLJlBXLkCm-7" style="edgeStyle=orthogonalEdgeStyle;rounded=0;orthogonalLoop=1;jettySize=auto;html=1;" parent="1" source="lW9xZ8FQmXiLJlBXLkCm-5" target="lW9xZ8FQmXiLJlBXLkCm-6" edge="1">
          <mxGeometry relative="1" as="geometry" />
        </mxCell>
        <mxCell id="lW9xZ8FQmXiLJlBXLkCm-5" value="&lt;h1&gt;&lt;font style=&quot;font-size: 14px;&quot;&gt;X ← A, A ← B,&amp;nbsp;&lt;/font&gt;&lt;/h1&gt;&lt;h1&gt;&lt;font size=&quot;3&quot;&gt;B&amp;nbsp;←&lt;span style=&quot;background-color: initial; font-weight: normal;&quot;&gt;&amp;nbsp;X&lt;/span&gt;&lt;/font&gt;&lt;br&gt;&lt;/h1&gt;" style="rounded=1;whiteSpace=wrap;html=1;absoluteArcSize=1;arcSize=14;strokeWidth=2;" parent="1" vertex="1">
          <mxGeometry x="314" y="230" width="200" height="100" as="geometry" />
        </mxCell>
        <mxCell id="lW9xZ8FQmXiLJlBXLkCm-9" style="edgeStyle=orthogonalEdgeStyle;rounded=0;orthogonalLoop=1;jettySize=auto;html=1;exitX=0.5;exitY=1;exitDx=0;exitDy=0;exitPerimeter=0;" parent="1" source="lW9xZ8FQmXiLJlBXLkCm-6" target="lW9xZ8FQmXiLJlBXLkCm-8" edge="1">
          <mxGeometry relative="1" as="geometry" />
        </mxCell>
        <mxCell id="lW9xZ8FQmXiLJlBXLkCm-6" value="A, B" style="strokeWidth=2;html=1;shape=mxgraph.flowchart.display;whiteSpace=wrap;" parent="1" vertex="1">
          <mxGeometry x="364" y="370" width="100" height="60" as="geometry" />
        </mxCell>
        <mxCell id="lW9xZ8FQmXiLJlBXLkCm-8" value="fim" style="strokeWidth=2;html=1;shape=mxgraph.flowchart.terminator;whiteSpace=wrap;" parent="1" vertex="1">
          <mxGeometry x="364" y="470" width="100" height="60" as="geometry" />
        </mxCell>
      </root>
    </mxGraphModel>
  </diagram>
</mxfile>
